#!OML:ASF F:\VICON\USERDATA\INSTALL\rory3\rory3.ASF
:FULLY-SPECIFIED
:DEGREES
395
root -1.23232 18.8698 13.166 -0.455469 -2.7563 2.56631
lowerback 1.85885 -0.763491 -2.06637
upperback -1.48724 -1.08635 -0.218708
thorax -2.53444 -0.507098 0.976832
lowerneck -7.5554 -9.10571 -10.4111
upperneck 9.98351 -11.7884 6.38417
head 5.23488 -5.81784 2.75918
rclavicle -6.59095e-015 -8.94531e-015
rhumerus -25.8907 7.22618 -85.361
rradius 29.0533
rwrist 9.13404
rhand -26.3261 -0.26032
rfingers 7.12502
rthumb 0.230764 -30.2399
lclavicle -6.59095e-015 -8.94531e-015
lhumerus -32.0974 14.5149 74.1931
lradius 21.8676
lwrist 0.654631
lhand -24.8039 27.277
lfingers 7.12502
lthumb 1.70097 57.25
rfemur -2.39564 20.3513 19.3402
rtibia 20.2734
rfoot -16.9195 -18.5428
rtoes 2.61343
lfemur 2.95733 -3.27985 -22.3799
ltibia 11.9657
lfoot -12.6251 15.6376
ltoes -1.63505
396
root -1.24227 18.8763 13.1753 -0.308531 -2.80954 2.48979
lowerback 1.86665 -0.792638 -2.09874
upperback -1.46971 -1.12672 -0.24279
thorax -2.51941 -0.52717 0.971772
lowerneck -7.63018 -9.15268 -10.4496
upperneck 9.90576 -11.8395 6.4168
head 5.23181 -5.84029 2.76794
rclavicle 3.45078e-014 1.98785e-016
rhumerus -26.1711 7.18144 -85.4346
rradius 28.93
rwrist 9.14754
rhand -26.1225 -0.700649
rfingers 7.12502
rthumb 0.427409 -30.68
lclavicle 3.45078e-014 1.98785e-016
lhumerus -32.2262 14.7766 73.9848
lradius 21.7685
lwrist 0.279863
lhand -24.6346 27.5389
lfingers 7.12502
lthumb 1.86445 57.5105
rfemur -2.19404 20.6986 19.4386
rtibia 19.7231
rfoot -16.8634 -18.7636
rtoes 2.89805
lfemur 3.26601 -3.47688 -22.2876
ltibia 11.167
lfoot -12.3283 15.8851
ltoes -1.70418
397
root -1.25005 18.8838 13.1838 -0.194104 -2.90058 2.44385
lowerback 1.93384 -0.818748 -2.15102
upperback -1.44828 -1.16532 -0.273729
thorax -2.53363 -0.545778 0.97172
lowerneck -7.67388 -9.16094 -10.4162
upperneck 9.73408 -11.8454 6.45004
head 5.18619 -5.83857 2.77378
rclavicle 1.55114e-014 4.96962e-015
rhumerus -26.406 6.97449 -85.4976
rradius 28.6764
rwrist 9.32398
rhand -25.8197 -1.50761
rfingers 7.12502
rthumb 0.719887 -31.4861
lclavicle 1.55114e-014 4.96962e-015
lhumerus -32.4905 15.0601 73.7651
lradius 21.9283
lwrist -0.232325
lhand -23.8987 27.7546
lfingers 7.12502
lthumb 2.57518 57.7188
rfemur -2.00294 20.825 19.4803
rtibia 19.2193
rfoot -16.7011 -18.7705
rtoes 2.87574
lfemur 3.56821 -3.84748 -22.2596
ltibia 10.4579
lfoot -12.1592 16.289
ltoes -1.6623
398
root -1.25558 18.8907 13.1939 -0.0317435 -2.98283 2.57945
lowerback 1.88589 -0.833 -2.33656
upperback -1.45019 -1.19089 -0.366595
thorax -2.50625 -0.556411 0.980465
lowerneck -7.74102 -9.2067 -10.2722
upperneck 9.6241 -11.8916 6.28444
head 5.148 -5.86352 2.69617
rclavicle -1.594e-014 -4.17448e-015
rhumerus -26.6969 6.67585 -85.5274
rradius 28.4225
rwrist 9.60202
rhand -25.6981 -1.95009
rfingers 7.12502
rthumb 0.837292 -31.9282
lclavicle -1.594e-014 -4.17448e-015
lhumerus -32.7355 15.49 73.4651
lradius 21.9222
lwrist -0.925375
lhand -23.3965 27.2507
lfingers 7.12502
lthumb 3.0602 57.2085
rfemur -1.89062 21.0547 19.2874
rtibia 18.7459
rfoot -16.5707 -18.8508
rtoes 3.19955
lfemur 3.77497 -3.76986 -22.4177
ltibia 9.84402
lfoot -12.0196 16.2245
ltoes -1.38452
399
root -1.26209 18.8941 13.2006 0.123484 -3.04116 2.63549
lowerback 1.83803 -0.829089 -2.45348
upperback -1.43995 -1.18906 -0.431461
thorax -2.46803 -0.554578 0.978337
lowerneck -7.69293 -9.30707 -10.2828
upperneck 9.44086 -12.0136 6.21865
head 5.08976 -5.9276 2.67141
rclavicle 4.64349e-015 3.67752e-015
rhumerus -26.9426 6.25068 -85.4482
rradius 28.1254
rwrist 10.1754
rhand -25.5442 -1.74623
rfingers 7.12502
rthumb 0.985941 -31.7237
lclavicle 4.64349e-015 3.67752e-015
lhumerus -32.8055 15.7243 73.3079
lradius 21.6516
lwrist -1.22364
lhand -24.0493 26.7892
lfingers 7.12502
lthumb 2.4297 56.7551
rfemur -1.82566 21.3571 19.1882
rtibia 18.3133
rfoot -16.4447 -19.0339
rtoes 3.69978
lfemur 3.91803 -3.71829 -22.4645
ltibia 9.33929
lfoot -11.8999 16.1416
ltoes -1.09329
400
root -1.26824 18.8959 13.2045 0.271676 -3.11939 2.63326
lowerback 1.83433 -0.809998 -2.53866
upperback -1.45755 -1.16717 -0.466971
thorax -2.48401 -0.542166 0.988832
lowerneck -7.42162 -9.35072 -10.3542
upperneck 9.13681 -12.0865 6.29611
head 4.96587 -5.96646 2.71702
rclavicle 1.55145e-014 -8.64713e-015
rhumerus -27.2179 5.52415 -85.2567
rradius 27.6681
rwrist 11.2804
rhand -25.2375 -1.80609
rfingers 7.12502
rthumb 1.28219 -31.782
lclavicle 1.55145e-014 -8.64713e-015
lhumerus -32.9475 15.9831 73.1499
lradius 21.4315
lwrist -1.56227
lhand -24.5439 27.0144
lfingers 7.12502
lthumb 1.95203 56.9852
rfemur -1.77153 21.7491 19.1693
rtibia 17.8976
rfoot -16.3088 -19.2522
rtoes 4.16666
lfemur 3.95262 -3.64611 -22.4595
ltibia 9.09767
lfoot -11.9666 16.058
ltoes -0.841027
